<svg xmlns="http://www.w3.org/2000/svg" viewBox="0 0 128 128">
  <defs>
    <linearGradient id="bg" x1="0" y1="0" x2="1" y2="1">
      <stop offset="0%" stop-color="#eef8ff" />
      <stop offset="100%" stop-color="#cce2ff" />
    </linearGradient>
    <linearGradient id="grass" x1="0" y1="0" x2="0" y2="1">
      <stop offset="0%" stop-color="#9fdf9f" />
      <stop offset="100%" stop-color="#56aa6d" />
    </linearGradient>
    <linearGradient id="track" x1="0" y1="0" x2="1" y2="1">
      <stop offset="0%" stop-color="#f8fbff" />
      <stop offset="100%" stop-color="#c6d4ea" />
    </linearGradient>
    <linearGradient id="eth" x1="0" y1="0" x2="1" y2="1">
      <stop offset="0%" stop-color="#7f8cff" />
      <stop offset="100%" stop-color="#4c64dc" />
    </linearGradient>
  </defs>

  <rect width="128" height="128" rx="30" fill="url(#bg)" />
  <ellipse cx="64" cy="92" rx="40" ry="18" fill="url(#grass)" />
  <ellipse cx="64" cy="92" rx="49" ry="25" fill="none" stroke="url(#track)" stroke-width="10" />
  <ellipse cx="64" cy="92" rx="49" ry="25" fill="none" stroke="#8ea6cb" stroke-width="1.8" opacity="0.55" />

  <g fill="none" stroke="#99afd0" stroke-width="2.4" stroke-linecap="round" opacity="0.86">
    <path d="M28 73c8 0 13 3 18 8" />
    <path d="M41 63c8 0 13 3 18 8" />
    <path d="M54 55c8 0 13 3 18 8" />
  </g>

  <g transform="translate(41 63) rotate(-18)">
    <polygon points="0,-13 8,0 0,5 -8,0" fill="url(#eth)" />
    <polygon points="0,7 8,2 0,17 -8,2" fill="#3349b5" />
  </g>
  <g transform="translate(64 52) rotate(-4)">
    <polygon points="0,-15 9,0 0,6 -9,0" fill="url(#eth)" />
    <polygon points="0,8 9,3 0,19 -9,3" fill="#3045ae" />
  </g>
  <g transform="translate(87 62) rotate(17)">
    <polygon points="0,-13 8,0 0,5 -8,0" fill="url(#eth)" />
    <polygon points="0,7 8,2 0,17 -8,2" fill="#3a51be" />
  </g>

  <rect x="1.5" y="1.5" width="125" height="125" rx="28.5" fill="none" stroke="#a7c3e7" stroke-width="1.6" />
</svg>
