<svg xmlns="http://www.w3.org/2000/svg" viewBox="0 0 256 256" role="img" aria-label="Agentic Ethereum logo">
  <defs>
    <linearGradient id="circuit" x1="0" y1="0" x2="1" y2="1">
      <stop offset="0%" stop-color="#42efe5" />
      <stop offset="100%" stop-color="#1eb6d6" />
    </linearGradient>
    <filter id="glow" x="-50%" y="-50%" width="200%" height="200%">
      <feGaussianBlur stdDeviation="1.4" result="b" />
      <feMerge>
        <feMergeNode in="b" />
        <feMergeNode in="SourceGraphic" />
      </feMerge>
    </filter>
  </defs>

  <g fill="none" stroke="url(#circuit)" stroke-width="6" stroke-linecap="round" stroke-linejoin="round" filter="url(#glow)">
    <path d="M72 72c0-20 16-36 36-36h20" />
    <path d="M184 72c0-20-16-36-36-36h-20" />
    <path d="M56 112c0-20 16-36 36-36" />
    <path d="M200 112c0-20-16-36-36-36" />
    <path d="M56 160c0 20 16 36 36 36" />
    <path d="M200 160c0 20-16 36-36 36" />
    <path d="M72 184c0 20 16 36 36 36h20" />
    <path d="M184 184c0 20-16 36-36 36h-20" />

    <path d="M96 84v40" />
    <path d="M160 84v40" />
    <path d="M80 128h44" />
    <path d="M176 128h-44" />

    <path d="M96 172v-24" />
    <path d="M160 172v-24" />
    <path d="M86 98l18 12" />
    <path d="M170 98l-18 12" />

    <circle cx="96" cy="84" r="4" />
    <circle cx="160" cy="84" r="4" />
    <circle cx="80" cy="128" r="4" />
    <circle cx="176" cy="128" r="4" />
    <circle cx="96" cy="172" r="4" />
    <circle cx="160" cy="172" r="4" />
  </g>

  <g fill="none" stroke="#eff8ff" stroke-width="6" stroke-linecap="round" stroke-linejoin="round">
    <polygon points="128,56 92,114 128,132 164,114" />
    <polyline points="128,56 128,132" />
    <polyline points="92,114 128,96 164,114" />
    <polygon points="128,200 92,142 128,160 164,142" />
    <polyline points="128,160 128,200" />
    <polyline points="92,142 128,160 164,142" />
  </g>
</svg>
